<svg width="318" height="279" fill="none" xmlns="http://www.w3.org/2000/svg"><g clip-path="url(#clip0)"><mask id="a" maskUnits="userSpaceOnUse" x="3" y="1" width="311" height="277"><path fill-rule="evenodd" clip-rule="evenodd" d="M309.34 124.5a30 30 0 0 1 0 30l-62.43 108.131a30 30 0 0 1-25.981 15H96.07a30 30 0 0 1-25.98-15L7.66 154.5a30 30 0 0 1 0-30L70.09 16.369a30 30 0 0 1 25.98-15H220.93a30 30 0 0 1 25.981 15L309.34 124.5z" fill="#fff"/></mask><g mask="url(#a)"><path fill="#FFE01C" d="M-58.5 -12H396.5V291H-58.5z"/></g><g clip-path="url(#clip1)"><path d="M158.999 126.328c7.553 0 13.675 6.121 13.675 13.671 0 7.553-6.122 13.675-13.675 13.675-7.551 0-13.673-6.124-13.673-13.675 0-7.55 6.122-13.671 13.673-13.671zm-46.589 13.671c0-25.73 20.859-46.588 46.589-46.588 25.733 0 46.59 20.858 46.59 46.588 0 1.704-.091 3.384-.269 5.037-.354 4.542 2.979 8.008 7.492 8.008 7.659 0 8.475-9.875 8.475-13.045 0-34.402-27.887-62.287-62.288-62.287-34.402 0-62.287 27.886-62.287 62.287 0 34.4 27.885 62.287 62.286 62.287 18.27 0 34.703-7.861 46.097-20.389L217.9 192.65c-14.464 16.168-35.494 26.352-58.901 26.352-43.63 0-78.999-35.372-78.999-79.003C80 96.369 115.369 61 158.999 61 202.631 61 238 96.368 238 140c0 17.537-8.351 31.779-25.123 31.779-7.382 0-11.869-3.382-14.319-7.157-8.227 13.188-22.866 21.969-39.559 21.969-25.731 0-46.589-20.861-46.589-46.591v-.001zm46.589-29.878c-16.5 0-29.878 13.377-29.878 29.878 0 16.502 13.378 29.88 29.878 29.88 16.501 0 29.88-13.378 29.88-29.88 0-16.501-13.379-29.878-29.88-29.878z" fill="#000"/></g></g><defs><clipPath id="clip0"><path fill="#fff" d="M0 0H318V279H0z"/></clipPath><clipPath id="clip1"><path fill="#fff" transform="translate(80 61)" d="M0 0H158V158H0z"/></clipPath></defs></svg>