<svg fill="none" height="279" width="318" xmlns="http://www.w3.org/2000/svg" xmlns:xlink="http://www.w3.org/1999/xlink"><clipPath id="a"><path d="m0 0h318v279h-318z"/></clipPath><clipPath id="b"><path d="m0 0h158v158h-158z" transform="translate(80 61)"/></clipPath><mask id="c" height="277" maskUnits="userSpaceOnUse" width="311" x="3" y="1"><path clip-rule="evenodd" d="m309.34 124.5a30 30 0 0 1 0 30l-62.43 108.131a30 30 0 0 1 -25.981 15h-124.859a30 30 0 0 1 -25.98-15l-62.43-108.131a30 30 0 0 1 0-30l62.43-108.131a30 30 0 0 1 25.98-15h124.86a30 30 0 0 1 25.981 15z" fill="#fff" fill-rule="evenodd"/></mask><g clip-path="url(#a)"><g mask="url(#c)"><path d="m-58.5-12h455v303h-455z" fill="#ffe01c"/></g><g clip-path="url(#b)"><path d="m158.999 126.328c7.553 0 13.675 6.121 13.675 13.671 0 7.553-6.122 13.675-13.675 13.675-7.551 0-13.673-6.124-13.673-13.675 0-7.55 6.122-13.671 13.673-13.671zm-46.589 13.671c0-25.73 20.859-46.588 46.589-46.588 25.733 0 46.59 20.858 46.59 46.588 0 1.704-.091 3.384-.269 5.037-.354 4.542 2.979 8.008 7.492 8.008 7.659 0 8.475-9.875 8.475-13.045 0-34.402-27.887-62.287-62.288-62.287-34.402 0-62.287 27.886-62.287 62.287 0 34.4 27.885 62.287 62.286 62.287 18.27 0 34.703-7.861 46.097-20.389l12.805 10.753c-14.464 16.168-35.494 26.352-58.901 26.352-43.63 0-78.999-35.372-78.999-79.003 0-43.63 35.369-78.999 78.999-78.999 43.632 0 79.001 35.368 79.001 79 0 17.537-8.351 31.779-25.123 31.779-7.382 0-11.869-3.382-14.319-7.157-8.227 13.188-22.866 21.969-39.559 21.969-25.731 0-46.589-20.861-46.589-46.591zm46.589-29.878c-16.5 0-29.878 13.377-29.878 29.878 0 16.502 13.378 29.88 29.878 29.88 16.501 0 29.88-13.378 29.88-29.88 0-16.501-13.379-29.878-29.88-29.878z" fill="#000"/></g></g></svg>